<svg height="44" viewBox="0 0 41.249999 41.249999" width="44" xmlns="http://www.w3.org/2000/svg" xmlns:xlink="http://www.w3.org/1999/xlink"><radialGradient id="a" cx="54.732918" cy="62.295113" gradientTransform="matrix(.1757499 -.18261819 .20022238 .19269201 -3.049687 13.523103)" gradientUnits="userSpaceOnUse" r="59.359489"><stop offset="0" stop-color="#fff" stop-opacity=".961111"/><stop offset="1" stop-color="#fff" stop-opacity="0"/></radialGradient><filter id="b" color-interpolation-filters="sRGB"><feFlood flood-opacity=".498039" result="flood"/><feComposite in="flood" in2="SourceGraphic" operator="in" result="composite1"/><feGaussianBlur in="composite1" result="blur" stdDeviation="3"/><feOffset dx="3" dy="3" result="offset"/><feComposite in="SourceGraphic" in2="offset" operator="over" result="composite2"/></filter><g filter="url(#b)" transform="matrix(.28535561 0 0 .28535561 1.248746 1.285539)"><path d="m8.391668 14.465918h118.71898v112.61146h-118.71898z" fill="#efc947" stroke-width=".264965"/><path d="m14.261937 8.3630915h106.792693l6.05601 6.1028255h-118.7189717z" fill="#f0cc4f" stroke-width=".215412"/></g><g fill="#fefdf6"><path d="m7.1812527 18.091826c1.1059179-.896935 1.7545819-1.327771 3.1213713-1.254045.593146-.0026 1.095157.121589 1.589775.406238.467533.282805.765349.644865.938673 1.122433.08955.252247.113705.542677.132339.844151.06093.659074-.137676 1.121799-.389877 1.564799-.832655 1.52766-1.99613 2.321744-3.0618824 3.522802 1.3787264.03126 2.4599704-.02104 3.7445484.0071l-.01281 1.615322c-2.057381-.02307-3.8892694-.01483-6.0179308-.01978-.010139-.503049.00137-.9235-.00137-1.385913.5198677-.594681 2.5735774-2.457943 3.5073578-3.969087.49323-.798194.531123-1.607605-.08606-2.022558-.7705876-.398395-1.7088534.192228-2.4210178.770958-.3814395-.37749-.7011732-.789491-1.0431572-1.202458z" stroke-width=".0755"/><path d="m24.373526 16.925612c-1.232676 1.947351-2.526559 3.873609-3.804069 5.837857l.0048 1.27569 3.708512.01962-.0044 1.869075h1.894733l-.01696-1.884412 1.090771.002.0048-1.465768-1.068802-.02728-.02405-5.62684zm-.03025 2.249822-.04321 3.388519-2.065643.02463c.785863-1.089422 1.458483-2.219122 2.108849-3.413147z" stroke-width=".073775"/><path d="m31.080668 16.781689c-.856481.000001-1.971459.200091-2.585296 1.119824-.257208.385381-.430232 1.361252-.111482 2.059006.347897.761554 1.202847 1.231452 1.202847 1.231452s-.935217.49137-1.328927 1.249c-.403659.776779-.263463 1.825406-.05824 2.248936.527917 1.089529 1.99709 1.304151 2.896442 1.304151.959242 0 2.211082-.316819 2.734232-1.533454.168406-.391645.279154-1.349038-.166043-2.056351-.464104-.73735-1.488772-1.217148-1.488772-1.217148s.88615-.485914 1.313146-1.244871c.347793-.618185.281936-1.487246.07343-1.853739-.555798-.976968-1.59228-1.306806-2.481334-1.306806zm-.12667 1.439225c.666061.0693.935464.360501.940804.982538 0 .559166-.916323 1.182346-.916323 1.182346s-.962924-.596047-.962924-1.155214c.02089-.610124.348975-1.005043.938443-1.00967zm-.05368 3.778261s1.330101.739142 1.330101 1.421088c.03574.884656-.452856 1.174937-1.28262 1.181905-.852015-.03228-1.207943-.332687-1.215085-1.164652.0911-.713976.524561-1.159691 1.167604-1.438341z" stroke-width=".0755"/><path d="m17.158375 16.810002c-.843071.000001-1.791533.294727-2.360386 1.117762-.563423.81519-.751346 2.152311-.751346 3.490118 0 .882271.09303 1.823922.349187 2.53752.524416 1.460901 1.380524 2.045421 2.754434 2.056941.968933.0081 1.933716-.470381 2.471755-1.525048.393767-.771867.501663-1.933297.501663-3.069413 0-1.364478-.06281-2.353752-.744414-3.469865-.497316-.814341-1.394465-1.138015-2.220893-1.138015zm-.0024 1.534928c.265036 0 .604786.237169.812662.769602.214006.548129.292269 1.403804.292269 2.251149 0 .861439-.07561 1.789543-.296548 2.362335-.207484.53791-.552161.747335-.812658.747335-.254476 0-.635199-.139314-.869877-.62568-.261361-.541669-.359217-1.55799-.359217-2.43813 0-.831903.06697-1.809177.306575-2.366464.241511-.561718.656784-.700147.926794-.700147z" stroke-width=".071308"/></g><path d="m3.64336 2.891172h33.877125v34.656609h-33.877125z" fill="url(#a)" opacity=".6" stroke-width=".078521"/></svg>