<?xml version="1.0"?>
<!-- Converted with SVG Converter - Version 0.9.5 (Compiled Sun Oct 24 18:57:08 2021) - Copyright (C) 2011 Nokia -->
<svg xmlns="http://www.w3.org/2000/svg" width="44" version="1.1" height="44" viewBox="0 0 44 44" xmlns:xlink="http://www.w3.org/1999/xlink" baseProfile="tiny" id="svg2">
 <metadata id="metadata44"/>
 <defs id="defs42">
  <linearGradient id="linearGradient3774">
   <stop offset="0" style="stop-color:#ffffff;stop-opacity:0.70588237;" id="stop3776"/>
   <stop offset="1" style="stop-color:#ffffff;stop-opacity:0;" id="stop3778"/>
  </linearGradient>
  <radialGradient fx="14.633515" fy="11.964467" cx="14.633515" cy="11.964467" id="radialGradient3780" r="6.7235069" gradientUnits="userSpaceOnUse">
   <stop offset="0" style="stop-color:#ffffff;stop-opacity:0.70588237;" id="stop3776"/>
   <stop offset="1" style="stop-color:#ffffff;stop-opacity:0;" id="stop3778"/>
  </radialGradient>
 </defs>
 <radialGradient cx="12.65625" cy="12.265625" id="a" r=".625" gradientUnits="userSpaceOnUse">
  <stop offset="0" stop-color="#fff" id="stop5" stop-opacity=".705882"/>
  <stop offset="1" stop-color="#fff" id="stop7" stop-opacity="0"/>
 </radialGradient>
 <radialGradient cx="47.274658" cy="17.64357" gradientTransform="matrix(1.0692337 -.9438718 1.0629185 1.2040919 -22.02668 41.020308)" id="b" r="16.938564" gradientUnits="userSpaceOnUse">
  <stop offset="0" id="stop10" stop-opacity="0"/>
  <stop offset="1" id="stop12" stop-opacity=".571429"/>
 </radialGradient>
 <g id="g14" transform="matrix(0.18308778,0,0,0.18308778,6.610095,3.23852)">
  <g style="fill:url(#b)" id="g16" transform="matrix(5.8259852,0,0,5.8259852,-187.95025,3.777817)">
   <path style="stroke-width:0.264965" id="path18" d="M 30.336093,2.4471519 H 64.21322 V 34.581463 H 30.336093 z"/>
   <path style="stroke-width:0.21541201" id="path20" d="M 32.011207,0.70567594 H 62.485101 L 64.213217,2.4471509 H 30.336093 z"/>
  </g>
  <path style="fill:#c59d11;stroke-width:0.264965" id="path22" d="m -14.021284,13.763786 195.858914,0.06401 0.74984,0.486953 v 1.984203 H -14.780169 v -2.026874 z"/>
  <path style="fill:#f0cc4f;stroke-width:0.26496500000000001;fill-opacity:1" id="path24" d="M -14.783632,14.537606 H 182.58401 V 201.75166 H -14.783632 z"/>
  <path style="fill:#f0cc4f;stroke-width:0.21541201" id="path26" d="M -5.0315212,4.1630414 H 172.50896 L 182.57694,14.30885 H -14.790712 z"/>
  <g style="fill:#fefdf6" id="g28">
   <path style="stroke-width:0.071308" id="path36" d="M 64.808812,79.162087 C 57.509949,78.84519 50.297173,83.660338 48.587465,90.92478 c -2.58403,9.68103 -2.714538,20.23345 0.126801,29.8663 1.895194,6.47131 7.551561,11.97505 14.581557,11.93157 8.825706,1.13542 16.740628,-6.17397 17.799038,-14.72178 1.299423,-9.0343 1.834764,-18.622086 -0.99424,-27.424735 C 78.007273,83.808123 72.08762,78.874161 64.808812,79.162087 z m -0.01398,8.942468 c 5.85474,1.478376 5.860614,9.024627 6.346587,13.916045 -0.03989,6.74259 0.740792,14.37331 -3.266043,20.20054 -5.377754,4.98772 -10.049293,-3.47851 -9.790743,-8.40883 -0.583124,-7.52926 -1.275562,-15.679418 1.882174,-22.743563 0.990921,-1.703858 2.815812,-2.97456 4.828025,-2.964192 z m 81.125048,-9.107419 c -6.96793,-0.317859 -15.78363,3.16447 -16.54818,11.022587 -1.30014,6.097795 2.63301,11.862487 7.84456,14.671647 -5.713,2.87992 -10.12544,8.84845 -9.19973,15.48676 -0.12293,7.73624 7.86235,12.09985 14.75337,12.3329 7.93938,1.20828 18.18236,-2.23298 19.79647,-11.03168 1.40402,-6.20815 -2.1532,-12.40334 -7.61389,-15.31964 -5.82749,-2.12363 4.51345,-4.72304 4.99584,-8.749286 3.2351,-5.694956 0.91223,-13.490766 -5.12381,-16.26024 -2.71096,-1.489685 -5.82623,-2.149442 -8.90463,-2.153048 z m -0.73797,8.384903 c 7.36741,4.7e-4 6.34233,9.57703 0.97676,11.994394 -5.44575,0.845817 -9.74545,-10.478703 -2.19269,-11.879691 l 1.21593,-0.114703 0,0 z m -0.31274,22.012091 c 4.23369,2.33635 9.85087,6.69272 7.08197,12.15192 -2.98301,4.67558 -13.09228,4.2009 -13.77189,-2.0967 -0.72486,-4.48379 2.69561,-8.517 6.68992,-10.05522 z m -38.025,-29.558501 c -7.176977,11.562078 -15.149864,22.778901 -22.161203,34.341511 0.0089,2.3673 0.01781,4.73461 0.02672,7.10191 7.201912,0.0381 14.403823,0.0762 21.605735,0.1143 -0.009,3.62974 -0.0171,7.25947 -0.0256,10.88921 3.67956,0 7.35913,0 11.03869,0 -0.0329,-3.65952 -0.0659,-7.31904 -0.0988,-10.97856 2.11827,0.004 4.23654,0.008 6.35481,0.0117 0.009,-2.84651 0.0187,-5.69303 0.028,-8.53954 -2.07561,-0.053 -4.15123,-0.10595 -6.22684,-0.15893 -0.0467,-10.9273 -0.0934,-21.854593 -0.14011,-32.781889 -3.46713,9.6e-5 -6.93427,1.92e-4 -10.4014,2.88e-4 z m -0.17623,13.10743 c -0.0839,6.580487 -0.16783,13.160971 -0.25174,19.741461 -4.01147,0.0478 -8.022939,0.0957 -12.034408,0.14349 4.566563,-6.3232 8.560438,-13.038732 12.286148,-19.884951 z M 6.6822449,86.629975 C 11.684837,82.216511 17.928112,78.477528 24.867308,79.323927 32.115872,78.929526 40.195926,84.00385 40.276111,91.8452 c 1.17883,8.54521 -5.203722,15.58025 -10.588498,21.39468 -2.503629,3.01559 -8.459674,7.24717 -8.680446,9.56404 7.022175,0.14849 14.045611,-0.13166 21.067631,0.0257 -0.02488,3.13695 -0.04975,6.27389 -0.07463,9.41084 -11.686319,-0.13382 -23.373575,-0.0873 -35.0603756,-0.11524 -1.6826985,-6.72813 2.1812581,-11.28737 7.0711316,-15.323 5.628462,-6.20004 12.385519,-12.09774 15.235961,-20.181794 2.225269,-5.758454 -4.566201,-10.485884 -9.562689,-7.365724 -3.942908,1.363896 -7.417611,6.997772 -10.0496765,0.95532 C 8.6368061,89.028032 7.6681621,87.82053 6.6822449,86.629975 z"/>
  </g>
 </g>
</svg>
